<svg xmlns="http://www.w3.org/2000/svg" aria-hidden="true" viewBox="0 0 128 128" data-token-id="356" class="_1v88awf1 _1ptbkx6bc _1ptbkx61eg _1v88awf5" fetchPriority="low" aria-label="" preserveAspectRatio="xMidYMid slice"><g display="var(--svgDisplayLight)"><path fill="#e7e2dc" d="M0 0h128v128H0z"></path><path fill="#788fa5" d="M88.41 84.67a32 32 0 1 0-48.82 0 66.13 66.13 0 0 1 48.82 0"></path><path fill="#9db3c8" d="M88.41 84.67a32 32 0 0 1-48.82 0A66.79 66.79 0 0 0 0 128h128a66.79 66.79 0 0 0-39.59-43.33"></path><path fill="#56687a" d="M64 96a31.93 31.93 0 0 0 24.41-11.33 66.13 66.13 0 0 0-48.82 0A31.93 31.93 0 0 0 64 96"></path></g><g display="var(--svgDisplayDark)"><path fill="#38434f" d="M0 0h128v128H0z"></path><path fill="#788fa5" d="M88.41 84.67a32 32 0 1 0-48.82 0 66.13 66.13 0 0 1 48.82 0"></path><path fill="#9db3c8" d="M88.41 84.67a32 32 0 0 1-48.82 0A66.79 66.79 0 0 0 0 128h128a66.79 66.79 0 0 0-39.59-43.33"></path><path fill="#56687a" d="M64 96a31.93 31.93 0 0 0 24.41-11.33 66.13 66.13 0 0 0-48.82 0A31.93 31.93 0 0 0 64 96"></path></g></svg>